<svg width="35" height="35" viewBox="0 0 35 35" fill="none" xmlns="http://www.w3.org/2000/svg">
<path fill-rule="evenodd" clip-rule="evenodd" d="M26.2419 0H8.07692C6.57 2.95034e-05 5.09314 0.421625 3.8133 1.21713C2.53345 2.01263 1.50168 3.1503 0.834615 4.50154L16.8808 14.7135L26.2419 0ZM0 8.75808V26.9231C2.95034e-05 28.43 0.421625 29.9069 1.21713 31.1867C2.01263 32.4665 3.1503 33.4983 4.50154 34.1654L14.7135 18.1192L0 8.75808ZM8.75808 35H26.9231C29.0652 35 31.1196 34.149 32.6343 32.6343C34.149 31.1196 35 29.0652 35 26.9231V8.07692C35.0002 6.57029 34.579 5.09362 33.784 3.81381C32.989 2.53399 31.8519 1.50206 30.5012 0.834615L19.2042 18.5823L8.75808 35Z" fill="white"/>
</svg>
