<svg width="32" height="37" viewBox="0 0 32 37" fill="none" xmlns="http://www.w3.org/2000/svg">
<path fill-rule="evenodd" clip-rule="evenodd" d="M3.96431 28.9049V31.7143C3.96431 32.0648 4.10353 32.4009 4.35135 32.6487C4.59916 32.8965 4.93527 33.0357 5.28574 33.0357H23.7857C24.8371 33.0357 25.8455 32.6181 26.5889 31.8746C27.3324 31.1312 27.75 30.1228 27.75 29.0714V28.0116C26.5451 28.7082 25.1775 29.0738 23.7857 29.0714H5.28574C4.82852 29.0714 4.38717 29.0133 3.96431 28.9049ZM2.50499e-05 23.7857V5.28572C-0.00230876 4.53009 0.158459 3.78285 0.471349 3.09504C0.784239 2.40723 1.24188 1.79504 1.81303 1.30029C2.77484 0.460459 4.00887 -0.00159567 5.28574 4.14046e-06H23.7857C25.8885 4.14046e-06 27.9052 0.835333 29.3921 2.32223C30.879 3.80912 31.7143 5.82579 31.7143 7.92858V29.0714C31.7143 31.1742 30.879 33.1909 29.3921 34.6778C27.9052 36.1647 25.8885 37 23.7857 37H5.28574C3.88388 37 2.53944 36.4431 1.54817 35.4519C0.556911 34.4606 2.50499e-05 33.1161 2.50499e-05 31.7143V23.7857ZM3.96431 23.7857C3.96431 24.1362 4.10353 24.4723 4.35135 24.7201C4.59916 24.9679 4.93527 25.1071 5.28574 25.1071H23.7857C24.8371 25.1071 25.8455 24.6895 26.5889 23.946C27.3324 23.2026 27.75 22.1943 27.75 21.1429V7.92858C27.75 6.87718 27.3324 5.86885 26.5889 5.1254C25.8455 4.38195 24.8371 3.96429 23.7857 3.96429H5.28574C5.11201 3.96359 4.93986 3.99729 4.77922 4.06345C4.61859 4.12961 4.47263 4.22692 4.34979 4.34977C4.22694 4.47261 4.12963 4.61856 4.06347 4.7792C3.99731 4.93984 3.96361 5.11199 3.96431 5.28572V23.7857ZM9.25002 11.2321C9.25002 10.7064 9.45886 10.2023 9.83058 9.83056C10.2023 9.45884 10.7065 9.25 11.2322 9.25H20.4822C21.0079 9.25 21.512 9.45884 21.8838 9.83056C22.2555 10.2023 22.4643 10.7064 22.4643 11.2321C22.4643 11.7578 22.2555 12.262 21.8838 12.6337C21.512 13.0055 21.0079 13.2143 20.4822 13.2143H11.2322C10.7065 13.2143 10.2023 13.0055 9.83058 12.6337C9.45886 12.262 9.25002 11.7578 9.25002 11.2321Z" fill="white"/>
</svg>
