<svg id="Layer_2" data-name="Layer 2" xmlns="http://www.w3.org/2000/svg" viewBox="0 0 1000 1000"><defs><style>.cls-1,.cls-3,.cls-6{fill:none;stroke-width:4.82px;}.cls-1{stroke:#ccdde2;}.cls-1,.cls-3{stroke-miterlimit:10;}.cls-2{fill:#2e2e2e;}.cls-3,.cls-6{stroke:#000;}.cls-4{fill:#3fbdf1;}.cls-5,.cls-7{fill:#fff;}.cls-5{opacity:0.54;}.cls-6{stroke-linecap:square;stroke-linejoin:round;}.cls-8{fill:#d7e8f0;}</style></defs><path class="cls-1" d="M647.7,952.6q16.14,0,31.39-1.44c68.64-6.33,122.91-33.39,159-71.17a183.58,183.58,0,0,0,42.25-69.41,167.86,167.86,0,0,0,7-76.5c-24.94-177.14-234.4-91-146.59-198.74S656.66,290.57,590.7,323s6.78,101.79-156.22,69S305.21,503.28,305.21,503.28"/><path class="cls-2" d="M208.85,799.72s-74.65-53.53-103.47,5.67c0,0,30.31-107.42,133.69-145.84,0,0,29.55-16.44,30.85-6.51s9.87,15,13.62,14.88,35.41,1.86,36.51-2.87-1-18.9,14.7-19S435.64,666.88,460,689c0,0-42.4,51.19-19.73,107.63L421.17,792s11.78,102-4.28,161.33H139.49s27.73,3.49,56.17-16.8l41.3-53s18.11-27.44,55.11-31.36c0,0,21.06-2.3,20.86-12.31s7.59,6.41,18-8.06c1.27,0,26.57,1.46,26.57,1.46s19,1.78,22.57-15.18,16.73-136,12-143.15-6.54-7.24-46.46-7-75-7.72-80.08,12.14-10.95,95.11-10.95,95.11-22.5,5.89-39.64,30.26C215,805.43,208.85,817.31,208.85,799.72Z"/><line class="cls-3" x1="208.85" y1="763.57" x2="208.85" y2="810.43"/><path class="cls-3" d="M419.89,787C463.94,810.4,585.68,858.21,590,674.32c0,0-5.24-48.29,8.42-54.59s35.69-26.25,7.32-74.55l18.51-18.47a13.53,13.53,0,1,0-19.41-18.86l-36.79,39s-5.33-10-14.78-4.79-44.11,27.32-28.37,73.49l-40.94,117.6"/><path class="cls-3" d="M568,546.83s9.81,14.93-11.07,30.19"/><path class="cls-3" d="M611.78,556.78s6.11,19.19-18.54,31.57c-8.72,4.38-18.29-4.84-14.17-13.69.07-.13.13-.27.2-.41"/><path class="cls-3" d="M619.24,580.48s-5.39,18.74-20.14,19.64c-13.05.79-10.86-12.52-10.86-12.52"/><path class="cls-4" d="M366.9,568.74c-1,.26-1.63-.57-2.56-.41-13.37-2.44-23.31-13-24.43-18.08.38,2.77,5.46,2.49,4.6,5.32-.16.54-.48.33-.74.85-.42,1-.41-.37-1,.53-3.28-4.85-5.18-7.26-5.76-9.93a20,20,0,0,1-.68,8.55,9.11,9.11,0,0,1-.61,1.57c-2,4.72-6.17,8.71-13.14,9.7a28.17,28.17,0,0,1-5.27.17c-5-.29-9.32-.58-13-.74-12.3-.55-16.71.38-15.33,8.32a62.14,62.14,0,0,0,3.22,10.51c2.44,6.42,4.14,17.54,1.64,29.65,0,0,0,.07,0,.07-2.9,14.1-12.08,25-31.75,35.24a94.38,94.38,0,0,1-10.76,4.73c-34.13,12.66-115.77,44.73-149.61,162.33-3.6,12.53-6.29,23.93-8.19,34.34l-.93-.54C69.49,837.07,54.42,806,59,779.27c2.28-13.27,10.92-22.53,22-29.5,7.78-4.82,16.1-8.77,23.07-14.72,23.1-19.73,4.63-50.41,17.42-74,14.42-26.54,37-42.9,66.48-44.25,7.42.32,15.77,1.19,23.87.8,11.76.42,23.78-.54,32.39-8.25,6.78-6,8.19-15.78,10.76-23.94a278.15,278.15,0,0,0,7.23-28A80,80,0,0,1,271.92,532a58.82,58.82,0,0,1,20.63-20.66,56.37,56.37,0,0,1,24.19-7.17,50.16,50.16,0,0,1,22,6.56,45,45,0,0,1,6.49,4.66C360.12,528.09,367.25,549.59,366.9,568.74Z"/><path class="cls-3" d="M592.82,599s-4.77,5.92-2.16,11.54,9.09,6.93,15.39,4.47"/><line class="cls-3" x1="605.72" y1="545.18" x2="592.54" y2="558.35"/><path class="cls-3" d="M254.63,773.89l10.73-92.5a15.36,15.36,0,0,1,15.26-13.59h98.54a15.36,15.36,0,0,1,15.28,17L380.08,818.09a15.37,15.37,0,0,1-15.28,13.72H329.54"/><circle cx="371.1" cy="687.34" r="4.02"/><path class="cls-3" d="M304.74,795.35c10.4,2.34,12.48,2.38,22.57,3.88,6.36.95,20.9,1.74,21.16-8.13.24-8.67-9.49-13.76-16.36-16.53a95.07,95.07,0,0,0-24.67-5.77q-5.22-.6-10.49-.82c-24.35-1-52.44,4.89-69.21,23.94-38.85,44.08-90.51,72.42-90.51,72.42"/><path class="cls-3" d="M332.59,799.72c5,2.12,13.47,6.64,10,15.3-1.58,4-4.45,5.42-8.39,6-8.51,1.23-17.64-.58-26-2.33-3.09-.65-8.57-1.84-11.62-2.68"/><path class="cls-3" d="M323.7,821.22s9.09-.11,6.9,8.34c-3.61,14-31.66,7.66-44.78,4.72"/><path class="cls-3" d="M324.26,646.81c42.74,1.87,107.87,14.4,166.93,65.49"/><line class="cls-3" x1="647.7" y1="952.61" x2="139.49" y2="953.37"/><path class="cls-3" d="M419.89,767.88s10,93.07,0,184.73"/><path class="cls-5" d="M861.21,725.37,949.1,500.16a29.56,29.56,0,0,0-28.67-36.73H571.28a34.9,34.9,0,0,0-33.94,26.75L441.1,715.34a29.56,29.56,0,0,0,28.74,36.47h357.5A34.91,34.91,0,0,0,861.21,725.37Z"/><path class="cls-4" d="M861.21,725.37,949.1,500.16a29.56,29.56,0,0,0-28.67-36.73H571.28a34.9,34.9,0,0,0-33.94,26.75L441.1,715.34a29.56,29.56,0,0,0,28.74,36.47h357.5A34.91,34.91,0,0,0,861.21,725.37Z"/><path class="cls-6" d="M861.21,725.37,949.1,500.16a29.56,29.56,0,0,0-28.67-36.73H571.28a34.9,34.9,0,0,0-33.94,26.75L441.1,715.34a29.56,29.56,0,0,0,28.74,36.47h357.5A34.91,34.91,0,0,0,861.21,725.37Z"/><path class="cls-4" d="M848.35,716.25l81.09-207.77A27.27,27.27,0,0,0,903,474.6H580.87a32.19,32.19,0,0,0-31.31,24.68L460.77,707a27.27,27.27,0,0,0,26.52,33.64H817.11A32.22,32.22,0,0,0,848.35,716.25Z"/><path class="cls-7" d="M604.11,512.8c4.27-6.41,11.26-9.26,15.61-6.37s4.41,10.44.14,16.85a19.82,19.82,0,0,1-2.24,2.76l31.65,66.82c5-3.37,10.6-4.2,14.58-1.55,2.57,1.71,4,4.62,4.45,8l21.62-7.3,18.91-6.32c2-.69,4.11-1.35,6.17-2a27.88,27.88,0,0,1,3.21-6.57c6-9,15.81-13,21.91-9s6.18,14.47.35,23.42l36,49.23c7.85-6.44,17.1-8.43,23.51-4.17,8.72,5.8,8.85,20.94.29,33.81-.34.51-.73.93-1.09,1.42l24,32.79c.07.1.16.22.22.32a8.36,8.36,0,1,1-13.94,9.24l-21.31-32.15c-6.74,3.91-13.9,4.66-19.15,1.16-8.34-5.54-8.74-19.58-1.31-32l-34.51-52.07c-5.09,3.46-10.71,4.34-14.74,1.67a10.47,10.47,0,0,1-4.27-6.71c-.86.23-1.71.48-2.57.72l-19.23,5.25-24.61,6.63a27.17,27.17,0,0,1-3.68,8.29c-6,9-15.8,13-21.91,8.95s-6.2-14.66-.21-23.67a27.75,27.75,0,0,1,3-3.67l-30.13-68.13c-3.63,2.47-7.64,3.11-10.51,1.2C599.91,526.77,599.84,519.22,604.11,512.8Z"/><path class="cls-8" d="M833.31,516.49H880a11,11,0,0,0,10.07-6.58,4.76,4.76,0,0,0,.43-1.91,4.84,4.84,0,0,0-4.83-4.8H836C838.37,507.15,837.19,512.61,833.31,516.49Z"/><path class="cls-4" d="M803.12,511.7a4.8,4.8,0,0,0,4.8,4.79h25.39c3.88-3.88,5.06-9.34,2.73-13.29H813.62a11,11,0,0,0-10.07,6.56A5,5,0,0,0,803.12,511.7Z"/><path class="cls-7" d="M814.8,516.49a4.89,4.89,0,0,0,.46.73c3.33,4.55,10.55,5,16.17.88a17,17,0,0,0,1.88-1.61c3.88-3.88,5.06-9.34,2.73-13.29a4.82,4.82,0,0,0-.46-.72c-3.3-4.58-10.52-5-16.14-.91a18,18,0,0,0-1.91,1.63C813.68,507.09,812.5,512.52,814.8,516.49Z"/><path class="cls-4" d="M791.38,541a4.83,4.83,0,0,0,4.83,4.79h49c-2.37-4-1.19-9.4,2.7-13.28h-46a11,11,0,0,0-10.07,6.58A4.94,4.94,0,0,0,791.38,541Z"/><path class="cls-8" d="M845.2,545.79h23a11,11,0,0,0,10.07-6.55,4.83,4.83,0,0,0,.43-1.94,4.78,4.78,0,0,0-4.79-4.79H847.9C844,536.39,842.83,541.82,845.2,545.79Z"/><path class="cls-7" d="M845.2,545.79a2.86,2.86,0,0,0,.42.73c3.31,4.58,10.53,5,16.14.91a15.35,15.35,0,0,0,1.91-1.64c3.85-3.88,5-9.31,2.73-13.28a4.81,4.81,0,0,0-.45-.73c-3.34-4.55-10.56-5-16.17-.88a15.33,15.33,0,0,0-1.88,1.61C844,536.39,842.83,541.82,845.2,545.79Z"/><path class="cls-4" d="M828.88,574.89h29.33a11,11,0,0,0,10.07-6.56,4.69,4.69,0,0,0,.43-1.91,4.84,4.84,0,0,0-4.83-4.82H831.61C833.91,565.57,832.73,571,828.88,574.89Z"/><path class="cls-8" d="M781.34,570.12a4.79,4.79,0,0,0,4.8,4.77h42.74c3.85-3.89,5-9.32,2.73-13.29H791.84a11,11,0,0,0-10.07,6.58A4.9,4.9,0,0,0,781.34,570.12Z"/><path class="cls-7" d="M810.37,574.89a4.82,4.82,0,0,0,.46.72c3.3,4.58,10.52,5,16.14.91a18,18,0,0,0,1.91-1.63c3.85-3.89,5-9.32,2.73-13.29a4.89,4.89,0,0,0-.46-.73c-3.33-4.55-10.55-4.94-16.17-.88a17,17,0,0,0-1.88,1.61C809.22,565.48,808,570.94,810.37,574.89Z"/><path class="cls-4" d="M639.26,712.14h29.33a11,11,0,0,0,10.07-6.56,4.75,4.75,0,0,0-4.4-6.73H642C644.29,702.82,643.11,708.25,639.26,712.14Z"/><path class="cls-8" d="M522.82,707.37a4.78,4.78,0,0,0,4.79,4.77H639.26c3.85-3.89,5-9.32,2.73-13.29H533.32a11,11,0,0,0-10.07,6.58A4.9,4.9,0,0,0,522.82,707.37Z"/><path class="cls-7" d="M620.75,712.14a4.82,4.82,0,0,0,.46.72c3.3,4.59,10.52,5,16.14.91a18,18,0,0,0,1.91-1.63c3.85-3.89,5-9.32,2.73-13.29a4.89,4.89,0,0,0-.46-.73c-3.34-4.55-10.56-4.94-16.17-.88a17,17,0,0,0-1.88,1.61C619.6,702.73,618.42,708.19,620.75,712.14Z"/><path class="cls-3" d="M95.2,856.18a75.56,75.56,0,0,1-10.77-5.27C61.3,837.06,46.23,806,50.82,779.26c2.29-13.27,10.93-22.52,22.05-29.5C80.64,744.94,89,741,95.94,735.05c23.1-19.73,4.62-50.42,17.41-74,15.55-28.6,40.55-45.37,73.49-44.28,15.81.52,36.34,4.15,49.25-7.42,6.78-6,8.2-15.78,10.77-23.94a278.33,278.33,0,0,0,7.24-28A79.51,79.51,0,0,1,263.74,532a58.91,58.91,0,0,1,20.63-20.69c16-9.23,38.31-10.08,54.39-.59a46.38,46.38,0,0,1,6.48,4.65c14.88,12.76,22,34.25,21.66,53.41"/><path class="cls-3" d="M336.68,545.33c.83,5.64,4.26,10.84,10.35,12.4,6.88,1.75,10.53,8.45,12.47,15.18a44.89,44.89,0,0,1-2,29.81c-3.76,8.86-10.46,19-21.79,20.59-20.73,3-31.05-5.78-31.05-5.78"/><circle cx="319.41" cy="571.9" r="3.56"/><circle cx="350.72" cy="569.54" r="3.56"/><path class="cls-3" d="M311.15,838.25c5.18,3.18,1,8.42-2.76,10.19-6.46,3-14.81,3.53-21.85,4.37-53.53,6.3-71.4,79.78-105,93.44S57.77,969.89,101.75,817.11c33.86-117.58,115.5-149.65,149.63-162.31a95,95,0,0,0,10.74-4.72c19.67-10.22,28.88-21.16,31.77-35.27,0,0,0,0,0-.06,2.5-12.11.82-23.23-1.63-29.66A60.24,60.24,0,0,1,289,574.58c-1.82-10.23,6.08-8.79,28.26-7.57,10.18.6,15.94-4,18.42-9.86a9.44,9.44,0,0,0,.59-1.58,19.24,19.24,0,0,0,.36-10.24"/><path class="cls-3" d="M334.75,572.76s3.74,13.67,3.36,15.69-5.17.46-5.17.46"/><path class="cls-3" d="M332.17,601.43c-7.17,3.86-15.46,1.43-18.7-5"/><ellipse class="cls-3" cx="313.98" cy="574.66" rx="16.63" ry="16.23" transform="translate(-308.81 372.3) rotate(-43.35)"/><ellipse class="cls-3" cx="355.51" cy="570.86" rx="16.63" ry="16.23" transform="translate(-294.87 399.78) rotate(-43.35)"/><path class="cls-7" d="M355.86,559.45h0a11,11,0,0,1,11.05,10.31,11.81,11.81,0,0,1-10.68,12.45c-.35,0-.71,0-1.06,0A11,11,0,0,1,344.12,572,11.81,11.81,0,0,1,354.8,559.5c.35,0,.71,0,1.06,0m0-2.41c-.42,0-.85,0-1.28.06a14.24,14.24,0,0,0-12.87,15,13.43,13.43,0,0,0,13.46,12.55c.42,0,.85,0,1.28-.06a14.21,14.21,0,0,0,12.86-15A13.42,13.42,0,0,0,355.86,557Z"/><line class="cls-3" x1="330.39" y1="573.16" x2="339.11" y2="572.36"/><path class="cls-7" d="M314.34,562.92h0a11.29,11.29,0,0,1,11.38,10.61,12.16,12.16,0,0,1-11,12.83c-.36,0-.73,0-1.09,0a11.31,11.31,0,0,1-11.39-10.62,12.16,12.16,0,0,1,11-12.82,10.12,10.12,0,0,1,1.1-.05m0-2.41q-.66,0-1.32.06A14.56,14.56,0,0,0,299.84,576a13.76,13.76,0,0,0,13.79,12.86c.43,0,.87,0,1.31-.06a14.57,14.57,0,0,0,13.18-15.39,13.75,13.75,0,0,0-13.78-12.86Z"/><ellipse class="cls-4" cx="355.51" cy="570.86" rx="14.26" ry="13.93" transform="translate(-294.87 399.78) rotate(-43.35)"/><ellipse class="cls-4" cx="313.97" cy="574.65" rx="14.33" ry="13.99" transform="matrix(0.73, -0.69, 0.69, 0.73, -308.81, 372.29)"/><path class="cls-3" d="M278.73,667.92c-4.4-4.59-8.22-11.34-10.73-21.11"/><polyline class="cls-3" points="319.41 667.8 324.26 646.81 329.53 624.19"/><ellipse class="cls-8" cx="324.58" cy="748.36" rx="16.9" ry="14.94" transform="translate(-473.51 916.98) rotate(-78.48)"/><path class="cls-1" d="M648.57,900.18,640.37,946a5.57,5.57,0,0,1-5.48,4.59H592a5.57,5.57,0,0,1-5.5-4.66L579,900.18Z"/><path class="cls-1" d="M656.37,895.06h0a5.58,5.58,0,0,1-5.55,5.12h-74a5.58,5.58,0,0,1-5.55-5h0a5.57,5.57,0,0,1,5.55-6.1h74A5.57,5.57,0,0,1,656.37,895.06Z"/><path class="cls-1" d="M616.15,889c0-2.35,6-31.62,1-57.57-2.72-14.24-8.72-27.47-20.8-34.72"/><path class="cls-1" d="M617.17,831.47s1.37-19.72,18.41-21.08"/><path class="cls-1" d="M619,861.56a26.69,26.69,0,0,1,16.6-4.8"/><path class="cls-1" d="M619,847.55s-12.38-14.66-32.16-3.06"/><path class="cls-1" d="M610.27,841.65s-27.88-25.46-33.34,9c0,0,7.85,5.11,19.44,0S610.27,841.65,610.27,841.65Z"/><path class="cls-1" d="M623.3,816.39s-1-11.46,12.28-15.21,20.81,11.94,20.81,11.94S646.14,824.45,623.3,816.39Z"/><path class="cls-1" d="M626.38,856.75s-.46-11.59,15-9.2,18,15.58,18,15.58-25.32,9.28-33-5.16"/><path class="cls-1" d="M607.75,807.47c0,.82-11.62-1-12.36-1.26-5.63-1.68-9.63-5.58-12.26-10.74-.81-1.6-5.5-10.57-4.17-12.13C579,783.34,606.62,774.44,607.75,807.47Z"/><path class="cls-1" d="M880.36,810.58A183.58,183.58,0,0,1,838.11,880c-36.11,37.78-90.38,64.84-159,71.17V810.58Z"/><path class="cls-1" d="M838.11,880c-36.11,37.78-90.38,64.84-159,71.17V880Z"/><rect class="cls-1" x="796.91" y="836.52" width="20.31" height="20.31" rx="10.16"/></svg>