<svg width="37" height="37" viewBox="0 0 37 37" fill="none" xmlns="http://www.w3.org/2000/svg">
<path fill-rule="evenodd" clip-rule="evenodd" d="M23.7857 9.25C23.7857 10.6519 23.2288 11.9963 22.2376 12.9876C21.2463 13.9788 19.9019 14.5357 18.5 14.5357C17.0981 14.5357 15.7537 13.9788 14.7624 12.9876C13.7712 11.9963 13.2143 10.6519 13.2143 9.25C13.2143 7.84814 13.7712 6.5037 14.7624 5.51244C15.7537 4.52117 17.0981 3.96429 18.5 3.96429C19.9019 3.96429 21.2463 4.52117 22.2376 5.51244C23.2288 6.5037 23.7857 7.84814 23.7857 9.25ZM27.75 9.25C27.75 11.7033 26.7754 14.056 25.0407 15.7907C23.306 17.5254 20.9533 18.5 18.5 18.5C16.0467 18.5 13.694 17.5254 11.9593 15.7907C10.2246 14.056 9.25 11.7033 9.25 9.25C9.25 6.79675 10.2246 4.44397 11.9593 2.70926C13.694 0.974551 16.0467 0 18.5 0C20.9533 0 23.306 0.974551 25.0407 2.70926C26.7754 4.44397 27.75 6.79675 27.75 9.25ZM3.96429 30.3929C3.96429 29.8537 4.54571 28.2548 7.45286 26.5369C10.1433 24.9486 14.06 23.7857 18.5 23.7857C22.94 23.7857 26.8567 24.9486 29.5471 26.5369C32.4543 28.2548 33.0357 29.8537 33.0357 30.3929C33.0357 31.0938 32.7573 31.766 32.2616 32.2616C31.766 32.7573 31.0938 33.0357 30.3929 33.0357H6.60714C5.90621 33.0357 5.23399 32.7573 4.73836 32.2616C4.24273 31.766 3.96429 31.0938 3.96429 30.3929ZM18.5 19.8214C8.325 19.8214 0 25.1071 0 30.3929C0 32.1452 0.696108 33.8257 1.93519 35.0648C3.17427 36.3039 4.85482 37 6.60714 37H30.3929C32.1452 37 33.8257 36.3039 35.0648 35.0648C36.3039 33.8257 37 32.1452 37 30.3929C37 25.1071 28.675 19.8214 18.5 19.8214Z" fill="white"/>
</svg>
